<svg width="616" height="60" viewBox="0 0 616 60" fill="none" xmlns="http://www.w3.org/2000/svg">
<rect x="432.5" y="0.5" width="183" height="59" rx="15.5" stroke="#7B4AE2" stroke-opacity="0.5"/>
<path d="M515.52 37.1C514.387 37.1 513.427 36.9067 512.64 36.52C511.867 36.1333 511.24 35.6067 510.76 34.94C510.293 34.2733 509.947 33.5133 509.72 32.66C509.507 31.8067 509.4 30.92 509.4 30V22.8H511.64V30C511.64 30.6533 511.707 31.2867 511.84 31.9C511.973 32.5 512.187 33.04 512.48 33.52C512.773 34 513.167 34.38 513.66 34.66C514.167 34.94 514.787 35.08 515.52 35.08C516.267 35.08 516.887 34.94 517.38 34.66C517.887 34.3667 518.28 33.98 518.56 33.5C518.853 33.0067 519.067 32.46 519.2 31.86C519.333 31.26 519.4 30.64 519.4 30V22.8H521.66V30C521.66 30.9733 521.54 31.8933 521.3 32.76C521.073 33.6133 520.713 34.3667 520.22 35.02C519.74 35.66 519.113 36.1667 518.34 36.54C517.567 36.9133 516.627 37.1 515.52 37.1ZM524.639 37V22.8H526.879V37H524.639ZM535.03 37V22.8H540.07C541.603 22.8 542.883 23.12 543.91 23.76C544.936 24.3867 545.703 25.24 546.21 26.32C546.73 27.3867 546.99 28.5733 546.99 29.88C546.99 31.32 546.703 32.5733 546.13 33.64C545.57 34.7067 544.77 35.5333 543.73 36.12C542.69 36.7067 541.47 37 540.07 37H535.03ZM544.71 29.88C544.71 28.88 544.523 28 544.15 27.24C543.79 26.4667 543.263 25.8667 542.57 25.44C541.89 25 541.056 24.78 540.07 24.78H537.27V35.02H540.07C541.07 35.02 541.91 34.7933 542.59 34.34C543.283 33.8867 543.81 33.2733 544.17 32.5C544.53 31.7267 544.71 30.8533 544.71 29.88ZM553.806 37.2C552.993 37.2 552.253 37.06 551.586 36.78C550.933 36.4867 550.366 36.0933 549.886 35.6C549.406 35.0933 549.033 34.52 548.766 33.88C548.513 33.2267 548.386 32.5333 548.386 31.8C548.386 30.8133 548.613 29.9133 549.066 29.1C549.519 28.2733 550.153 27.6133 550.966 27.12C551.779 26.6133 552.733 26.36 553.826 26.36C554.919 26.36 555.859 26.6133 556.646 27.12C557.446 27.6133 558.066 28.2667 558.506 29.08C558.946 29.8933 559.166 30.7667 559.166 31.7C559.166 31.86 559.159 32.0133 559.146 32.16C559.133 32.2933 559.119 32.4067 559.106 32.5H550.726C550.766 33.1133 550.933 33.6533 551.226 34.12C551.533 34.5733 551.919 34.9333 552.386 35.2C552.853 35.4533 553.353 35.58 553.886 35.58C554.473 35.58 555.026 35.4333 555.546 35.14C556.079 34.8467 556.439 34.46 556.626 33.98L558.506 34.52C558.279 35.0267 557.933 35.4867 557.466 35.9C557.013 36.3 556.473 36.62 555.846 36.86C555.219 37.0867 554.539 37.2 553.806 37.2ZM550.666 31.04H556.986C556.946 30.44 556.773 29.9133 556.466 29.46C556.173 28.9933 555.793 28.6333 555.326 28.38C554.873 28.1133 554.366 27.98 553.806 27.98C553.259 27.98 552.753 28.1133 552.286 28.38C551.833 28.6333 551.459 28.9933 551.166 29.46C550.873 29.9133 550.706 30.44 550.666 31.04ZM564.681 37.2C563.801 37.2 562.967 37.06 562.181 36.78C561.394 36.4867 560.721 36.0533 560.161 35.48L560.981 34C561.581 34.5333 562.181 34.92 562.781 35.16C563.394 35.4 564.001 35.52 564.601 35.52C565.214 35.52 565.714 35.4067 566.101 35.18C566.487 34.94 566.681 34.5933 566.681 34.14C566.681 33.8067 566.581 33.56 566.381 33.4C566.181 33.24 565.887 33.1 565.501 32.98C565.127 32.86 564.674 32.7267 564.141 32.58C563.394 32.3533 562.767 32.12 562.261 31.88C561.754 31.6267 561.374 31.32 561.121 30.96C560.867 30.6 560.741 30.14 560.741 29.58C560.741 28.9 560.914 28.32 561.261 27.84C561.607 27.36 562.087 26.9933 562.701 26.74C563.327 26.4867 564.047 26.36 564.861 26.36C565.621 26.36 566.321 26.48 566.961 26.72C567.614 26.9467 568.187 27.3067 568.681 27.8L567.741 29.26C567.274 28.8333 566.794 28.52 566.301 28.32C565.821 28.12 565.301 28.02 564.741 28.02C564.421 28.02 564.114 28.06 563.821 28.14C563.527 28.2067 563.281 28.34 563.081 28.54C562.894 28.7267 562.801 28.9933 562.801 29.34C562.801 29.62 562.881 29.8467 563.041 30.02C563.201 30.1933 563.441 30.34 563.761 30.46C564.081 30.58 564.474 30.7133 564.941 30.86C565.754 31.1 566.447 31.34 567.021 31.58C567.594 31.8067 568.034 32.1067 568.341 32.48C568.661 32.84 568.821 33.34 568.821 33.98C568.821 34.9933 568.441 35.7867 567.681 36.36C566.934 36.92 565.934 37.2 564.681 37.2ZM570.785 37V26.54H572.985V37H570.785ZM570.785 24.82V22.4H572.985V24.82H570.785ZM579.769 37.1C579.062 37.1 578.415 36.96 577.829 36.68C577.242 36.3867 576.735 35.9933 576.309 35.5C575.895 35.0067 575.569 34.44 575.329 33.8C575.102 33.16 574.989 32.4867 574.989 31.78C574.989 31.0333 575.109 30.3333 575.349 29.68C575.589 29.0267 575.922 28.4533 576.349 27.96C576.789 27.4533 577.302 27.06 577.889 26.78C578.475 26.5 579.129 26.36 579.849 26.36C580.689 26.36 581.422 26.56 582.049 26.96C582.689 27.36 583.215 27.88 583.629 28.52V26.54H585.569V36.7C585.569 37.7133 585.322 38.5733 584.829 39.28C584.349 39.9867 583.689 40.5267 582.849 40.9C582.009 41.2733 581.062 41.46 580.009 41.46C578.849 41.46 577.889 41.26 577.129 40.86C576.369 40.46 575.722 39.9133 575.189 39.22L576.429 38.06C576.829 38.62 577.342 39.0467 577.969 39.34C578.609 39.6333 579.289 39.78 580.009 39.78C580.609 39.78 581.162 39.6667 581.669 39.44C582.189 39.2267 582.602 38.8867 582.909 38.42C583.215 37.9667 583.369 37.3933 583.369 36.7V35.1C582.995 35.7267 582.482 36.22 581.829 36.58C581.175 36.9267 580.489 37.1 579.769 37.1ZM580.489 35.32C580.822 35.32 581.142 35.2667 581.449 35.16C581.755 35.04 582.035 34.8867 582.289 34.7C582.555 34.5 582.782 34.28 582.969 34.04C583.155 33.7867 583.289 33.52 583.369 33.24V30.5C583.195 30.0467 582.949 29.6533 582.629 29.32C582.309 28.9733 581.949 28.7067 581.549 28.52C581.149 28.3333 580.742 28.24 580.329 28.24C579.849 28.24 579.415 28.3467 579.029 28.56C578.655 28.76 578.335 29.0333 578.069 29.38C577.802 29.7133 577.595 30.0933 577.449 30.52C577.302 30.9467 577.229 31.3867 577.229 31.84C577.229 32.32 577.309 32.7667 577.469 33.18C577.642 33.5933 577.875 33.9667 578.169 34.3C578.462 34.62 578.809 34.8733 579.209 35.06C579.609 35.2333 580.035 35.32 580.489 35.32ZM597.587 37H595.387V31.14C595.387 30.1667 595.227 29.4533 594.907 29C594.6 28.5467 594.14 28.32 593.527 28.32C593.1 28.32 592.673 28.4267 592.247 28.64C591.833 28.8533 591.46 29.1467 591.127 29.52C590.793 29.88 590.553 30.3 590.407 30.78V37H588.207V26.54H590.207V28.64C590.473 28.1733 590.82 27.7733 591.247 27.44C591.687 27.0933 592.18 26.8267 592.727 26.64C593.273 26.4533 593.853 26.36 594.467 26.36C595.093 26.36 595.607 26.4733 596.007 26.7C596.42 26.9267 596.74 27.24 596.967 27.64C597.207 28.0267 597.367 28.48 597.447 29C597.54 29.5067 597.587 30.0467 597.587 30.62V37Z" fill="#7B4AE2" fill-opacity="0.5"/>
<path d="M454.5 22.5H468.25" stroke="#7B4AE2" stroke-linecap="round" stroke-linejoin="round"/>
<path d="M475.75 22.5H489.5" stroke="#7B4AE2" stroke-linecap="round" stroke-linejoin="round"/>
<path d="M472 26.25C474.071 26.25 475.75 24.5711 475.75 22.5C475.75 20.4289 474.071 18.75 472 18.75C469.929 18.75 468.25 20.4289 468.25 22.5C468.25 24.5711 469.929 26.25 472 26.25Z" stroke="#7B4AE2" stroke-linecap="round" stroke-linejoin="round"/>
<path d="M458.25 41.25C460.321 41.25 462 39.5711 462 37.5C462 35.4289 460.321 33.75 458.25 33.75C456.179 33.75 454.5 35.4289 454.5 37.5C454.5 39.5711 456.179 41.25 458.25 41.25Z" stroke="#7B4AE2" stroke-linecap="round" stroke-linejoin="round"/>
<path d="M485.75 41.25C487.821 41.25 489.5 39.5711 489.5 37.5C489.5 35.4289 487.821 33.75 485.75 33.75C483.679 33.75 482 35.4289 482 37.5C482 39.5711 483.679 41.25 485.75 41.25Z" stroke="#7B4AE2" stroke-linecap="round" stroke-linejoin="round"/>
<path d="M475.719 23.0156C478.193 23.7104 480.424 25.0841 482.158 26.9812C483.893 28.8783 485.061 31.2231 485.531 33.75" stroke="#7B4AE2" stroke-linecap="round" stroke-linejoin="round"/>
<path d="M458.469 33.75C458.939 31.2231 460.107 28.8783 461.842 26.9812C463.576 25.0841 465.807 23.7104 468.281 23.0156" stroke="#7B4AE2" stroke-linecap="round" stroke-linejoin="round"/>
<circle cx="459.5" cy="31.25" r="12.5" fill="#7B4AE2" fill-opacity="0.2"/>
<rect x="216" width="184" height="60" rx="16" fill="#7B4AE2" fill-opacity="0.1"/>
<path d="M300.6 37V22.8H305.64C307.173 22.8 308.453 23.12 309.48 23.76C310.507 24.3867 311.273 25.24 311.78 26.32C312.3 27.3867 312.56 28.5733 312.56 29.88C312.56 31.32 312.273 32.5733 311.7 33.64C311.14 34.7067 310.34 35.5333 309.3 36.12C308.26 36.7067 307.04 37 305.64 37H300.6ZM310.28 29.88C310.28 28.88 310.093 28 309.72 27.24C309.36 26.4667 308.833 25.8667 308.14 25.44C307.46 25 306.627 24.78 305.64 24.78H302.84V35.02H305.64C306.64 35.02 307.48 34.7933 308.16 34.34C308.853 33.8867 309.38 33.2733 309.74 32.5C310.1 31.7267 310.28 30.8533 310.28 29.88ZM319.376 37.2C318.563 37.2 317.823 37.06 317.156 36.78C316.503 36.4867 315.936 36.0933 315.456 35.6C314.976 35.0933 314.603 34.52 314.336 33.88C314.083 33.2267 313.956 32.5333 313.956 31.8C313.956 30.8133 314.183 29.9133 314.636 29.1C315.09 28.2733 315.723 27.6133 316.536 27.12C317.35 26.6133 318.303 26.36 319.396 26.36C320.49 26.36 321.43 26.6133 322.216 27.12C323.016 27.6133 323.636 28.2667 324.076 29.08C324.516 29.8933 324.736 30.7667 324.736 31.7C324.736 31.86 324.73 32.0133 324.716 32.16C324.703 32.2933 324.69 32.4067 324.676 32.5H316.296C316.336 33.1133 316.503 33.6533 316.796 34.12C317.103 34.5733 317.49 34.9333 317.956 35.2C318.423 35.4533 318.923 35.58 319.456 35.58C320.043 35.58 320.596 35.4333 321.116 35.14C321.65 34.8467 322.01 34.46 322.196 33.98L324.076 34.52C323.85 35.0267 323.503 35.4867 323.036 35.9C322.583 36.3 322.043 36.62 321.416 36.86C320.79 37.0867 320.11 37.2 319.376 37.2ZM316.236 31.04H322.556C322.516 30.44 322.343 29.9133 322.036 29.46C321.743 28.9933 321.363 28.6333 320.896 28.38C320.443 28.1133 319.936 27.98 319.376 27.98C318.83 27.98 318.323 28.1133 317.856 28.38C317.403 28.6333 317.03 28.9933 316.736 29.46C316.443 29.9133 316.276 30.44 316.236 31.04ZM330.251 37.2C329.371 37.2 328.538 37.06 327.751 36.78C326.964 36.4867 326.291 36.0533 325.731 35.48L326.551 34C327.151 34.5333 327.751 34.92 328.351 35.16C328.964 35.4 329.571 35.52 330.171 35.52C330.784 35.52 331.284 35.4067 331.671 35.18C332.058 34.94 332.251 34.5933 332.251 34.14C332.251 33.8067 332.151 33.56 331.951 33.4C331.751 33.24 331.458 33.1 331.071 32.98C330.698 32.86 330.244 32.7267 329.711 32.58C328.964 32.3533 328.338 32.12 327.831 31.88C327.324 31.6267 326.944 31.32 326.691 30.96C326.438 30.6 326.311 30.14 326.311 29.58C326.311 28.9 326.484 28.32 326.831 27.84C327.178 27.36 327.658 26.9933 328.271 26.74C328.898 26.4867 329.618 26.36 330.431 26.36C331.191 26.36 331.891 26.48 332.531 26.72C333.184 26.9467 333.758 27.3067 334.251 27.8L333.311 29.26C332.844 28.8333 332.364 28.52 331.871 28.32C331.391 28.12 330.871 28.02 330.311 28.02C329.991 28.02 329.684 28.06 329.391 28.14C329.098 28.2067 328.851 28.34 328.651 28.54C328.464 28.7267 328.371 28.9933 328.371 29.34C328.371 29.62 328.451 29.8467 328.611 30.02C328.771 30.1933 329.011 30.34 329.331 30.46C329.651 30.58 330.044 30.7133 330.511 30.86C331.324 31.1 332.018 31.34 332.591 31.58C333.164 31.8067 333.604 32.1067 333.911 32.48C334.231 32.84 334.391 33.34 334.391 33.98C334.391 34.9933 334.011 35.7867 333.251 36.36C332.504 36.92 331.504 37.2 330.251 37.2ZM336.355 37V26.54H338.555V37H336.355ZM336.355 24.82V22.4H338.555V24.82H336.355ZM345.339 37.1C344.632 37.1 343.986 36.96 343.399 36.68C342.812 36.3867 342.306 35.9933 341.879 35.5C341.466 35.0067 341.139 34.44 340.899 33.8C340.672 33.16 340.559 32.4867 340.559 31.78C340.559 31.0333 340.679 30.3333 340.919 29.68C341.159 29.0267 341.492 28.4533 341.919 27.96C342.359 27.4533 342.872 27.06 343.459 26.78C344.046 26.5 344.699 26.36 345.419 26.36C346.259 26.36 346.992 26.56 347.619 26.96C348.259 27.36 348.786 27.88 349.199 28.52V26.54H351.139V36.7C351.139 37.7133 350.892 38.5733 350.399 39.28C349.919 39.9867 349.259 40.5267 348.419 40.9C347.579 41.2733 346.632 41.46 345.579 41.46C344.419 41.46 343.459 41.26 342.699 40.86C341.939 40.46 341.292 39.9133 340.759 39.22L341.999 38.06C342.399 38.62 342.912 39.0467 343.539 39.34C344.179 39.6333 344.859 39.78 345.579 39.78C346.179 39.78 346.732 39.6667 347.239 39.44C347.759 39.2267 348.172 38.8867 348.479 38.42C348.786 37.9667 348.939 37.3933 348.939 36.7V35.1C348.566 35.7267 348.052 36.22 347.399 36.58C346.746 36.9267 346.059 37.1 345.339 37.1ZM346.059 35.32C346.392 35.32 346.712 35.2667 347.019 35.16C347.326 35.04 347.606 34.8867 347.859 34.7C348.126 34.5 348.352 34.28 348.539 34.04C348.726 33.7867 348.859 33.52 348.939 33.24V30.5C348.766 30.0467 348.519 29.6533 348.199 29.32C347.879 28.9733 347.519 28.7067 347.119 28.52C346.719 28.3333 346.312 28.24 345.899 28.24C345.419 28.24 344.986 28.3467 344.599 28.56C344.226 28.76 343.906 29.0333 343.639 29.38C343.372 29.7133 343.166 30.0933 343.019 30.52C342.872 30.9467 342.799 31.3867 342.799 31.84C342.799 32.32 342.879 32.7667 343.039 33.18C343.212 33.5933 343.446 33.9667 343.739 34.3C344.032 34.62 344.379 34.8733 344.779 35.06C345.179 35.2333 345.606 35.32 346.059 35.32ZM363.157 37H360.957V31.14C360.957 30.1667 360.797 29.4533 360.477 29C360.17 28.5467 359.71 28.32 359.097 28.32C358.67 28.32 358.244 28.4267 357.817 28.64C357.404 28.8533 357.03 29.1467 356.697 29.52C356.364 29.88 356.124 30.3 355.977 30.78V37H353.777V26.54H355.777V28.64C356.044 28.1733 356.39 27.7733 356.817 27.44C357.257 27.0933 357.75 26.8267 358.297 26.64C358.844 26.4533 359.424 26.36 360.037 26.36C360.664 26.36 361.177 26.4733 361.577 26.7C361.99 26.9267 362.31 27.24 362.537 27.64C362.777 28.0267 362.937 28.48 363.017 29C363.11 29.5067 363.157 30.0467 363.157 30.62V37Z" fill="#7B4AE2" fill-opacity="0.5"/>
<rect x="0.5" y="0.5" width="183" height="59" rx="15.5" stroke="#7B4AE2" stroke-opacity="0.5"/>
<path d="M83.52 37.1C82.3867 37.1 81.4267 36.9067 80.64 36.52C79.8667 36.1333 79.24 35.6067 78.76 34.94C78.2933 34.2733 77.9467 33.5133 77.72 32.66C77.5067 31.8067 77.4 30.92 77.4 30V22.8H79.64V30C79.64 30.6533 79.7067 31.2867 79.84 31.9C79.9733 32.5 80.1867 33.04 80.48 33.52C80.7733 34 81.1667 34.38 81.66 34.66C82.1667 34.94 82.7867 35.08 83.52 35.08C84.2667 35.08 84.8867 34.94 85.38 34.66C85.8867 34.3667 86.28 33.98 86.56 33.5C86.8533 33.0067 87.0667 32.46 87.2 31.86C87.3333 31.26 87.4 30.64 87.4 30V22.8H89.66V30C89.66 30.9733 89.54 31.8933 89.3 32.76C89.0733 33.6133 88.7133 34.3667 88.22 35.02C87.74 35.66 87.1133 36.1667 86.34 36.54C85.5667 36.9133 84.6267 37.1 83.52 37.1ZM92.6391 37V22.8H94.8791V37H92.6391ZM103.03 37V22.8H108.07C109.603 22.8 110.883 23.12 111.91 23.76C112.936 24.3867 113.703 25.24 114.21 26.32C114.73 27.3867 114.99 28.5733 114.99 29.88C114.99 31.32 114.703 32.5733 114.13 33.64C113.57 34.7067 112.77 35.5333 111.73 36.12C110.69 36.7067 109.47 37 108.07 37H103.03ZM112.71 29.88C112.71 28.88 112.523 28 112.15 27.24C111.79 26.4667 111.263 25.8667 110.57 25.44C109.89 25 109.056 24.78 108.07 24.78H105.27V35.02H108.07C109.07 35.02 109.91 34.7933 110.59 34.34C111.283 33.8867 111.81 33.2733 112.17 32.5C112.53 31.7267 112.71 30.8533 112.71 29.88ZM121.806 37.2C120.993 37.2 120.253 37.06 119.586 36.78C118.933 36.4867 118.366 36.0933 117.886 35.6C117.406 35.0933 117.033 34.52 116.766 33.88C116.513 33.2267 116.386 32.5333 116.386 31.8C116.386 30.8133 116.613 29.9133 117.066 29.1C117.519 28.2733 118.153 27.6133 118.966 27.12C119.779 26.6133 120.733 26.36 121.826 26.36C122.919 26.36 123.859 26.6133 124.646 27.12C125.446 27.6133 126.066 28.2667 126.506 29.08C126.946 29.8933 127.166 30.7667 127.166 31.7C127.166 31.86 127.159 32.0133 127.146 32.16C127.133 32.2933 127.119 32.4067 127.106 32.5H118.726C118.766 33.1133 118.933 33.6533 119.226 34.12C119.533 34.5733 119.919 34.9333 120.386 35.2C120.853 35.4533 121.353 35.58 121.886 35.58C122.473 35.58 123.026 35.4333 123.546 35.14C124.079 34.8467 124.439 34.46 124.626 33.98L126.506 34.52C126.279 35.0267 125.933 35.4867 125.466 35.9C125.013 36.3 124.473 36.62 123.846 36.86C123.219 37.0867 122.539 37.2 121.806 37.2ZM118.666 31.04H124.986C124.946 30.44 124.773 29.9133 124.466 29.46C124.173 28.9933 123.793 28.6333 123.326 28.38C122.873 28.1133 122.366 27.98 121.806 27.98C121.259 27.98 120.753 28.1133 120.286 28.38C119.833 28.6333 119.459 28.9933 119.166 29.46C118.873 29.9133 118.706 30.44 118.666 31.04ZM132.681 37.2C131.801 37.2 130.967 37.06 130.181 36.78C129.394 36.4867 128.721 36.0533 128.161 35.48L128.981 34C129.581 34.5333 130.181 34.92 130.781 35.16C131.394 35.4 132.001 35.52 132.601 35.52C133.214 35.52 133.714 35.4067 134.101 35.18C134.487 34.94 134.681 34.5933 134.681 34.14C134.681 33.8067 134.581 33.56 134.381 33.4C134.181 33.24 133.887 33.1 133.501 32.98C133.127 32.86 132.674 32.7267 132.141 32.58C131.394 32.3533 130.767 32.12 130.261 31.88C129.754 31.6267 129.374 31.32 129.121 30.96C128.867 30.6 128.741 30.14 128.741 29.58C128.741 28.9 128.914 28.32 129.261 27.84C129.607 27.36 130.087 26.9933 130.701 26.74C131.327 26.4867 132.047 26.36 132.861 26.36C133.621 26.36 134.321 26.48 134.961 26.72C135.614 26.9467 136.187 27.3067 136.681 27.8L135.741 29.26C135.274 28.8333 134.794 28.52 134.301 28.32C133.821 28.12 133.301 28.02 132.741 28.02C132.421 28.02 132.114 28.06 131.821 28.14C131.527 28.2067 131.281 28.34 131.081 28.54C130.894 28.7267 130.801 28.9933 130.801 29.34C130.801 29.62 130.881 29.8467 131.041 30.02C131.201 30.1933 131.441 30.34 131.761 30.46C132.081 30.58 132.474 30.7133 132.941 30.86C133.754 31.1 134.447 31.34 135.021 31.58C135.594 31.8067 136.034 32.1067 136.341 32.48C136.661 32.84 136.821 33.34 136.821 33.98C136.821 34.9933 136.441 35.7867 135.681 36.36C134.934 36.92 133.934 37.2 132.681 37.2ZM138.785 37V26.54H140.985V37H138.785ZM138.785 24.82V22.4H140.985V24.82H138.785ZM147.769 37.1C147.062 37.1 146.415 36.96 145.829 36.68C145.242 36.3867 144.735 35.9933 144.309 35.5C143.895 35.0067 143.569 34.44 143.329 33.8C143.102 33.16 142.989 32.4867 142.989 31.78C142.989 31.0333 143.109 30.3333 143.349 29.68C143.589 29.0267 143.922 28.4533 144.349 27.96C144.789 27.4533 145.302 27.06 145.889 26.78C146.475 26.5 147.129 26.36 147.849 26.36C148.689 26.36 149.422 26.56 150.049 26.96C150.689 27.36 151.215 27.88 151.629 28.52V26.54H153.569V36.7C153.569 37.7133 153.322 38.5733 152.829 39.28C152.349 39.9867 151.689 40.5267 150.849 40.9C150.009 41.2733 149.062 41.46 148.009 41.46C146.849 41.46 145.889 41.26 145.129 40.86C144.369 40.46 143.722 39.9133 143.189 39.22L144.429 38.06C144.829 38.62 145.342 39.0467 145.969 39.34C146.609 39.6333 147.289 39.78 148.009 39.78C148.609 39.78 149.162 39.6667 149.669 39.44C150.189 39.2267 150.602 38.8867 150.909 38.42C151.215 37.9667 151.369 37.3933 151.369 36.7V35.1C150.995 35.7267 150.482 36.22 149.829 36.58C149.175 36.9267 148.489 37.1 147.769 37.1ZM148.489 35.32C148.822 35.32 149.142 35.2667 149.449 35.16C149.755 35.04 150.035 34.8867 150.289 34.7C150.555 34.5 150.782 34.28 150.969 34.04C151.155 33.7867 151.289 33.52 151.369 33.24V30.5C151.195 30.0467 150.949 29.6533 150.629 29.32C150.309 28.9733 149.949 28.7067 149.549 28.52C149.149 28.3333 148.742 28.24 148.329 28.24C147.849 28.24 147.415 28.3467 147.029 28.56C146.655 28.76 146.335 29.0333 146.069 29.38C145.802 29.7133 145.595 30.0933 145.449 30.52C145.302 30.9467 145.229 31.3867 145.229 31.84C145.229 32.32 145.309 32.7667 145.469 33.18C145.642 33.5933 145.875 33.9667 146.169 34.3C146.462 34.62 146.809 34.8733 147.209 35.06C147.609 35.2333 148.035 35.32 148.489 35.32ZM165.587 37H163.387V31.14C163.387 30.1667 163.227 29.4533 162.907 29C162.6 28.5467 162.14 28.32 161.527 28.32C161.1 28.32 160.673 28.4267 160.247 28.64C159.833 28.8533 159.46 29.1467 159.127 29.52C158.793 29.88 158.553 30.3 158.407 30.78V37H156.207V26.54H158.207V28.64C158.473 28.1733 158.82 27.7733 159.247 27.44C159.687 27.0933 160.18 26.8267 160.727 26.64C161.273 26.4533 161.853 26.36 162.467 26.36C163.093 26.36 163.607 26.4733 164.007 26.7C164.42 26.9267 164.74 27.24 164.967 27.64C165.207 28.0267 165.367 28.48 165.447 29C165.54 29.5067 165.587 30.0467 165.587 30.62V37Z" fill="#7B4AE2" fill-opacity="0.5"/>
<path d="M22.5 22.5H36.25" stroke="#7B4AE2" stroke-linecap="round" stroke-linejoin="round"/>
<path d="M43.75 22.5H57.5" stroke="#7B4AE2" stroke-linecap="round" stroke-linejoin="round"/>
<path d="M40 26.25C42.0711 26.25 43.75 24.5711 43.75 22.5C43.75 20.4289 42.0711 18.75 40 18.75C37.9289 18.75 36.25 20.4289 36.25 22.5C36.25 24.5711 37.9289 26.25 40 26.25Z" stroke="#7B4AE2" stroke-linecap="round" stroke-linejoin="round"/>
<path d="M26.25 41.25C28.3211 41.25 30 39.5711 30 37.5C30 35.4289 28.3211 33.75 26.25 33.75C24.1789 33.75 22.5 35.4289 22.5 37.5C22.5 39.5711 24.1789 41.25 26.25 41.25Z" stroke="#7B4AE2" stroke-linecap="round" stroke-linejoin="round"/>
<path d="M53.75 41.25C55.8211 41.25 57.5 39.5711 57.5 37.5C57.5 35.4289 55.8211 33.75 53.75 33.75C51.6789 33.75 50 35.4289 50 37.5C50 39.5711 51.6789 41.25 53.75 41.25Z" stroke="#7B4AE2" stroke-linecap="round" stroke-linejoin="round"/>
<path d="M43.7188 23.0156C46.1934 23.7104 48.4241 25.0841 50.1583 26.9812C51.8925 28.8783 53.0609 31.2231 53.5312 33.75" stroke="#7B4AE2" stroke-linecap="round" stroke-linejoin="round"/>
<path d="M26.4688 33.75C26.9391 31.2231 28.1075 28.8783 29.8417 26.9812C31.5759 25.0841 33.8066 23.7104 36.2812 23.0156" stroke="#7B4AE2" stroke-linecap="round" stroke-linejoin="round"/>
<circle cx="27.5" cy="31.25" r="12.5" fill="#7B4AE2" fill-opacity="0.2"/>
</svg>
